<svg id="9511c5e7-3e85-4efb-9951-888c400f5452" data-name="Capa 1" xmlns="http://www.w3.org/2000/svg" viewBox="0 0 640 100"><title>logoLLS-big</title><path d="M19.8,22.95h3.61V77.07H37.84v3.28h-18Z" style="fill:#555"/><path d="M48.67,65.59V22.95h3.61V65.67c0,7.79,3.36,12.14,8.77,12.14s8.86-4.35,8.86-12.14V22.95h3.61V65.59c0,9.51-4.84,15.5-12.46,15.5S48.67,75.1,48.67,65.59Z" style="fill:#555"/><path d="M87.37,52.38V50.91c0-18.94,7.13-28.29,15.33-28.29A10.4,10.4,0,0,1,108.28,24v3.85a10.6,10.6,0,0,0-5.58-1.8C96.31,26.06,91,34.67,91,50.91v1.48c0,16.24,5.33,24.85,11.73,24.85a10.21,10.21,0,0,0,5.82-1.89V79a11.19,11.19,0,0,1-6,1.64C94.09,80.67,87.37,71.33,87.37,52.38Z" style="fill:#555"/><path d="M123,22.95h3.61v57.4H123Zm5.41-11.81,3.94,1.8L126,19.67h-2.62Z" style="fill:#555"/><path d="M153.21,22.7h3.94L169.7,80.35h-3.77l-3.36-16.07H147.64l-3.36,16.07h-3.61ZM161.91,61,155.1,28.36,148.29,61Z" style="fill:#555"/><path d="M203.23,22.95h3.61V77.07h14.43v3.28h-18Z" style="fill:#555"/><path d="M229.47,52.3V51c0-18.94,5.82-28.7,13.61-28.7S256.7,32,256.7,51V52.3c0,18.94-5.82,28.7-13.61,28.7S229.47,71.24,229.47,52.3Zm23.62,0V51c0-16.73-4.35-25.42-10-25.42s-10,8.69-10,25.42V52.3c0,16.73,4.35,25.42,10,25.42S253.09,69,253.09,52.3Zm-6.4-41.57,3.94,1.8-6.4,6.72h-2.62Z" style="fill:#555"/><path d="M270.88,22.95H278c10.17,0,16.48,7,16.48,17.88V41c0,10.91-6,18.2-16.81,18.2h-3.2V80.35h-3.61ZM278,56c8.28,0,12.87-5.58,12.87-14.92V40.9c0-9.35-5.08-14.68-13-14.68h-3.36V56Z" style="fill:#555"/><path d="M307.29,22.95h19.52v3.28H310.9V49.76h14.51V53H310.9v24h16.15v3.28H307.29Z" style="fill:#555"/><path d="M338.37,78.21l19-52.23H339.27v-3h21.89v2l-19,52.23h19v3.12h-22.8Z" style="fill:#555"/><path d="M392.9,78.13V74c3.94,2.54,7.22,3.69,10,3.69,4.84,0,8-3.2,8-8.28v-.16c0-4.76-1.72-8-8-16.48-7.63-10.25-9.51-13.53-9.51-18.78v-.16c0-6.81,5-11.73,11.23-11.73a16.29,16.29,0,0,1,8.69,2.54v4.1c-3.12-2.13-6-3.2-8.77-3.2-4.43,0-7.54,3.28-7.54,8v.16c0,4.26,1.72,7.54,8.12,15.66,7,8.77,9.43,13.45,9.43,19.6v.16c0,7.3-5,12-11.64,12A19.62,19.62,0,0,1,392.9,78.13Z" style="fill:#555"/><path d="M428.57,22.95h7.13c10.17,0,16.48,7,16.48,17.88V41c0,10.91-6,18.2-16.81,18.2h-3.2V80.35h-3.61Zm7.13,33c8.28,0,12.87-5.58,12.87-14.92V40.9c0-9.35-5.08-14.68-13-14.68h-3.36V56Z" style="fill:#555"/><path d="M465.55,22.95h3.61v57.4h-3.61ZM471,11.14l3.94,1.8-6.4,6.72h-2.62Z" style="fill:#555"/><path d="M485.47,22.95h3.94l17.88,48.22V22.95h3.44v57.4H507.2L488.92,31V80.35h-3.44Z" style="fill:#555"/><path d="M524.91,52.3V51c0-18.94,5.82-28.7,13.61-28.7S552.14,32,552.14,51V52.3c0,18.94-5.82,28.7-13.61,28.7S524.91,71.24,524.91,52.3Zm23.62,0V51c0-16.73-4.35-25.42-10-25.42s-10,8.69-10,25.42V52.3c0,16.73,4.35,25.42,10,25.42S548.53,69,548.53,52.3Z" style="fill:#555"/><path d="M566.32,22.95h3.61V77.07h14.43v3.28h-18Z" style="fill:#555"/><path d="M606,22.7h3.94l12.55,57.65h-3.77l-3.36-16.07H600.44l-3.36,16.07h-3.61ZM614.7,61,607.9,28.36,601.09,61Z" style="fill:#555"/></svg>